<svg xmlns="http://www.w3.org/2000/svg" width="16" height="15" viewBox="0 0 16 15">
    <g fill="#444" fill-rule="nonzero">
        <path d="M15.197 12.69h-.22a.65.65 0 0 0 0-.094V.82a.654.654 0 0 0-.654-.654H7.935a.654.654 0 0 0-.654.654v4.86a2.536 2.536 0 0 0-1.494 1.032 2.57 2.57 0 0 0-.366 2.146c.269 1.032.303 2.4-.254 2.968-.32.284-.771.369-1.173.22a1.304 1.304 0 0 1-.983-.747c-.593-1.372.89-3.966.893-3.978.09-.134 2.156-3.345.045-5.233C3.863 1.998 1.827-.155.255.054a.292.292 0 0 0 .074.58c.378-.023.755.061 1.087.242l-.418.505a.655.655 0 0 0 .112.931l1.405 1.122c.115.092.259.142.407.142h.056a.65.65 0 0 0 .437-.243l.407-.513c1.263 1.615-.373 4.187-.415 4.228-.067.116-1.636 2.864-.933 4.486.26.564.781.962 1.393 1.062.188.046.381.07.575.071a1.52 1.52 0 0 0 1.12-.445c.748-.781.688-2.374.397-3.503a1.97 1.97 0 0 1 1.315-2.448v6.325a.65.65 0 0 0 0 .094h-.187a.654.654 0 0 0-.669.654v.983a.654.654 0 0 0 .67.654h8.11a.654.654 0 0 0 .653-.654v-.983a.654.654 0 0 0-.654-.654zM3.393 2.473l-.415.512a.093.093 0 0 1-.064.034.09.09 0 0 1-.067-.02L1.443 1.88a.094.094 0 0 1 0-.131l.414-.516a.093.093 0 0 1 .064-.034.09.09 0 0 1 .067.019l1.405 1.121a.09.09 0 0 1 .033.064.093.093 0 0 1-.033.07zM7.834.82c0-.051.042-.093.094-.093h6.402c.052 0 .094.042.094.093v11.776a.093.093 0 0 1-.094.094H7.935a.093.093 0 0 1-.1-.094V.82zm7.471 13.507a.093.093 0 0 1-.093.093H7.087a.093.093 0 0 1-.093-.093v-.983c0-.052.041-.094.093-.094h8.11a.093.093 0 0 1 .108.094v.983z"/>
        <path d="M13.064 1.617h-3.87a.654.654 0 0 0-.654.654v3.877c0 .36.293.654.654.654h3.87a.654.654 0 0 0 .654-.654V2.27a.654.654 0 0 0-.654-.654zm.093 4.534a.093.093 0 0 1-.093.09h-3.87a.093.093 0 0 1-.093-.093V2.27c0-.052.041-.094.093-.094h3.87c.052 0 .093.042.093.094v3.88zM12.627 7.86H9.638a.28.28 0 0 0 0 .56h2.989a.28.28 0 0 0 0-.56z"/>
    </g>
</svg>
